<?xml version="1.0" standalone="no"?>
<!DOCTYPE svg PUBLIC "-//W3C//DTD SVG 20010904//EN"
 "http://www.w3.org/TR/2001/REC-SVG-20010904/DTD/svg10.dtd">
<svg version="1.0" xmlns="http://www.w3.org/2000/svg"
 width="296.000000pt" height="296.000000pt" viewBox="0 0 296.000000 296.000000"
 preserveAspectRatio="xMidYMid meet">
<metadata>
Created by potrace 1.11, written by Peter Selinger 2001-2013
</metadata>
<g transform="translate(0.000000,296.000000) scale(0.100000,-0.100000)"
fill="#000000" stroke="none">
<path d="M300 2058 c-144 -91 -240 -199 -240 -270 1 -52 34 -114 71 -134 38
-19 131 -15 222 11 109 31 185 60 203 76 l20 19 0 -51 c-1 -39 3 -54 18 -64
24 -18 51 -4 60 31 7 25 8 25 29 10 29 -21 79 -43 138 -60 45 -14 50 -13 73 5
14 11 27 15 31 10 12 -20 54 11 66 48 17 53 29 65 44 45 10 -14 22 -16 64 -11
41 5 51 3 51 -8 0 -8 -6 -15 -14 -15 -25 0 -25 -14 -2 -43 18 -22 28 -27 48
-22 30 8 58 52 58 92 0 16 9 36 20 45 19 17 20 16 30 -22 20 -75 88 -113 199
-111 121 1 122 86 1 90 -100 3 -129 15 -130 49 0 28 107 107 167 124 41 11 74
44 65 67 -8 22 -43 50 -63 51 -8 0 -41 -16 -73 -35 -32 -19 -62 -35 -66 -35
-16 0 -100 -91 -106 -115 -6 -26 -18 -32 -29 -15 -3 6 -14 10 -24 10 -17 0
-30 38 -46 132 -4 29 -11 38 -37 47 -29 10 -35 9 -62 -18 -17 -16 -40 -32 -52
-35 -19 -6 -46 -55 -114 -208 -19 -43 -22 -46 -53 -42 -45 7 -98 24 -121 40
-19 13 -19 13 0 20 129 45 154 86 109 174 -15 28 -79 90 -95 90 -11 0 -74 -60
-87 -83 -5 -10 -16 -19 -24 -20 -27 -5 -37 -17 -44 -55 -10 -59 -19 -68 -43
-42 -21 23 -36 33 -105 69 -36 19 -41 19 -63 4 -28 -18 -31 -53 -9 -87 l16
-24 -70 -17 c-100 -24 -161 -27 -168 -8 -3 8 -2 18 3 22 5 3 24 24 43 46 44
51 107 99 173 132 72 35 75 39 70 71 -3 26 -47 62 -75 62 -7 0 -41 -19 -77
-42z m490 -179 c0 -4 -20 -14 -45 -22 -52 -18 -56 -11 -19 33 25 29 27 30 45
14 11 -9 19 -20 19 -25z m328 -41 c2 -31 0 -33 -32 -35 -29 -1 -34 1 -29 15 8
23 44 62 52 57 4 -2 8 -19 9 -37z"/>
<path d="M2185 2024 c-11 -3 -62 -16 -113 -31 -110 -31 -125 -47 -87 -92 22
-25 24 -33 14 -49 -7 -11 -19 -17 -29 -15 -38 10 -58 -60 -24 -87 9 -8 10 -19
4 -34 -10 -26 5 -63 32 -80 22 -13 35 -1 42 37 11 61 15 65 74 77 94 19 100
21 116 38 12 15 13 20 1 36 -14 18 -20 19 -100 13 -25 -2 -29 1 -27 18 11 64
33 78 144 90 l47 6 -7 -38 c-7 -36 -7 -164 -1 -199 5 -30 56 -74 86 -74 47 1
113 37 164 93 86 93 113 182 75 255 -25 49 -41 40 -60 -34 -9 -37 -23 -79 -30
-93 -28 -54 -111 -109 -144 -96 -12 4 -13 18 -8 69 8 77 0 101 -52 155 -39 41
-58 47 -117 35z"/>
<path d="M2657 1891 c-51 -147 -55 -176 -32 -221 23 -44 51 -48 155 -22 19 5
55 7 80 5 57 -3 73 6 65 40 -11 43 -72 57 -177 42 -49 -7 -49 2 1 136 43 115
41 129 -12 146 l-33 10 -47 -136z"/>
<path d="M1790 2004 c-80 -16 -138 -33 -144 -42 -3 -5 0 -28 5 -51 10 -44 -3
-111 -21 -111 -5 0 -12 -20 -16 -45 -13 -93 30 -130 137 -120 146 14 193 43
148 91 -17 18 -26 21 -52 14 -50 -14 -140 -16 -144 -5 -9 27 24 46 80 50 53 3
107 25 107 43 0 24 -47 51 -88 50 -42 0 -61 6 -49 18 7 7 68 23 117 30 42 7
80 29 80 48 0 7 -8 20 -18 29 -19 18 -57 18 -142 1z"/>
<path d="M325 1333 c-76 -18 -188 -57 -216 -76 -73 -49 -46 -147 40 -147 40 0
122 -22 137 -37 13 -14 13 -17 -3 -35 -24 -26 -111 -67 -151 -70 -35 -2 -41
-10 -36 -51 5 -44 19 -55 67 -50 99 11 204 93 211 165 4 45 -49 129 -94 148
-16 7 -30 16 -30 20 0 14 82 26 151 24 41 -2 73 2 83 9 16 11 15 16 -6 54 -13
23 -32 44 -43 47 -23 7 -81 6 -110 -1z"/>
<path d="M646 1252 c-74 -44 -181 -150 -207 -207 -32 -69 -18 -136 33 -163 44
-23 147 -21 208 5 8 3 17 7 20 7 3 1 22 12 43 24 59 37 61 97 8 195 -15 29
-26 63 -24 76 2 15 -6 33 -24 51 -27 28 -29 28 -57 12z m43 -181 c26 -54 24
-64 -21 -87 -39 -20 -84 -28 -145 -25 -20 1 -21 3 -11 33 15 44 96 123 128
125 21 2 29 -6 49 -46z"/>
<path d="M1132 1251 c-6 -3 -14 -27 -18 -51 -10 -66 -38 -123 -76 -159 -32
-30 -94 -58 -104 -48 -8 7 -7 81 1 106 8 26 -30 111 -51 111 -43 0 -63 -187
-29 -276 16 -43 32 -54 84 -60 80 -9 230 140 247 246 10 60 -26 148 -54 131z"/>
<path d="M1275 1247 c-92 -249 -102 -302 -71 -349 23 -35 53 -41 124 -24 32 7
77 12 98 11 56 -3 84 9 77 35 -12 45 -90 68 -172 49 -20 -4 -40 -4 -45 1 -4 4
10 56 33 117 44 116 45 121 33 141 -13 19 -72 34 -77 19z"/>
</g>
</svg>
